<?xml version="1.0" encoding="UTF-8" standalone="no"?>
<svg width="500px" height="276px" viewBox="0 0 500 276" version="1.1" xmlns="http://www.w3.org/2000/svg" xmlns:xlink="http://www.w3.org/1999/xlink" xmlns:sketch="http://www.bohemiancoding.com/sketch/ns">
    <!-- Generator: Sketch 3.5.1 (25234) - http://www.bohemiancoding.com/sketch -->
    <title>Artboard 1</title>
    <desc>Created with Sketch.</desc>
    <defs>
        <linearGradient x1="50%" y1="0%" x2="50%" y2="100%" id="linearGradient-1">
            <stop stop-color="#EEEEEE" offset="0%"></stop>
            <stop stop-color="#D8D8D8" offset="100%"></stop>
        </linearGradient>
        <linearGradient x1="50%" y1="0%" x2="50%" y2="100%" id="linearGradient-2">
            <stop stop-color="#C0D4D3" offset="0%"></stop>
            <stop stop-color="#B0C9CC" offset="100%"></stop>
        </linearGradient>
    </defs>
    <g id="Page-1" stroke="none" stroke-width="1" fill="none" fill-rule="evenodd" sketch:type="MSPage">
        <g id="Artboard-1" sketch:type="MSArtboardGroup">
            <circle id="Oval-2" stroke="#9B9B9B" stroke-width="9" sketch:type="MSShapeGroup" cx="48.5" cy="133.5" r="30.5"></circle>
            <path d="M237.289128,194.983438 C220.953667,211.655409 198.184888,222 173,222 C123.294373,222 83,181.705627 83,132 C83,82.2943725 123.294373,42 173,42 C196.832445,42 218.501307,51.2634011 234.602423,66.3860412 C235.694121,66.133488 236.831665,66 238.000703,66 L445.999297,66 C454.283957,66 462.504582,72.5414804 464.286903,80.6365518 C464.286903,80.6365518 472.15625,112.90723 472.15625,130.5 C472.15625,145.90527 464.178274,180.339957 464.178274,180.339957 C462.422962,188.436475 454.292006,195 445.999297,195 L238.000703,195 C237.76217,195 237.524937,194.994438 237.289128,194.983438 Z" id="Oval-1" stroke="#979797" fill="#B8C5C8" sketch:type="MSShapeGroup"></path>
            <rect id="Rectangle-3" stroke="#979797" fill="url(#linearGradient-1)" sketch:type="MSShapeGroup" x="62" y="121" width="25" height="25" rx="3"></rect>
            <path d="M227.758299,157.988557 C218.148185,179.785017 196.350918,195 171,195 C136.758346,195 109,167.241654 109,133 C109,98.7583455 136.758346,71 171,71 C196.68629,71 218.724285,86.6202102 228.133283,108.879929 C225.45352,116.762276 224,125.211394 224,134 C224,142.369498 225.318196,150.431114 227.758298,157.98856 Z" id="Oval-3" stroke="#979797" fill="#1D3074" sketch:type="MSShapeGroup"></path>
            <path d="M262,132 C262,124.264323 264.004194,109 264.004194,109 L424.339718,109 C424.339718,109 430,124.52474 430,133 C430,139.858073 424.339718,155 424.339718,155 L264.004194,155 C264.004194,155 262,139.597656 262,132 Z" id="Rectangle-2" stroke="#979797" fill="url(#linearGradient-2)" sketch:type="MSShapeGroup"></path>
            <text id="RSA" sketch:type="MSTextLayer" font-family="Lucida Sans Unicode" font-size="34" font-weight="normal" fill="#FFFFFF">
                <tspan x="137" y="145">RSA</tspan>
            </text>
        </g>
    </g>
</svg>